<?xml version="1.0" encoding="UTF-8" standalone="no"?>
<!-- Created with Inkscape (http://www.inkscape.org/) -->

<svg
   xmlns:dc="http://purl.org/dc/elements/1.1/"
   xmlns:cc="http://creativecommons.org/ns#"
   xmlns:rdf="http://www.w3.org/1999/02/22-rdf-syntax-ns#"
   xmlns:svg="http://www.w3.org/2000/svg"
   xmlns="http://www.w3.org/2000/svg"
   xmlns:sodipodi="http://sodipodi.sourceforge.net/DTD/sodipodi-0.dtd"
   xmlns:inkscape="http://www.inkscape.org/namespaces/inkscape"
   width="512"
   height="512"
   viewBox="0 0 135.46666 135.46667"
   version="1.1"
   id="svg8"
   inkscape:version="0.92.3 (2405546, 2018-03-11)"
   sodipodi:docname="ic_funnychat.svg">
  <defs
     id="defs2" />
  <sodipodi:namedview
     id="base"
     pagecolor="#ffffff"
     bordercolor="#666666"
     borderopacity="1.0"
     inkscape:pageopacity="0.0"
     inkscape:pageshadow="2"
     inkscape:zoom="0.98994949"
     inkscape:cx="382.46693"
     inkscape:cy="188.29274"
     inkscape:document-units="px"
     inkscape:current-layer="layer1"
     showgrid="false"
     units="px"
     inkscape:window-width="1920"
     inkscape:window-height="992"
     inkscape:window-x="0"
     inkscape:window-y="32"
     inkscape:window-maximized="1" />
  <metadata
     id="metadata5">
    <rdf:RDF>
      <cc:Work
         rdf:about="">
        <dc:format>image/svg+xml</dc:format>
        <dc:type
           rdf:resource="http://purl.org/dc/dcmitype/StillImage" />
        <dc:title />
      </cc:Work>
    </rdf:RDF>
  </metadata>
  <g
     inkscape:label="Layer 1"
     inkscape:groupmode="layer"
     id="layer1"
     transform="translate(0,-161.53332)">
    <path
       style="fill:#216778;stroke-width:0.26726952"
       d="m 101.52923,293.78759 c 5.42534,-1.02754 9.65273,-2.38481 12.25987,-3.93621 2.1634,-1.28735 5.98066,-5.57678 6.793,-7.63324 0.4378,-1.10829 0.43313,-1.14972 -0.33228,-2.94841 -1.07277,-2.52096 -2.46132,-7.22579 -3.49012,-11.82561 -1.02234,-4.57089 -0.99418,-6.9919 0.10612,-9.12291 1.49497,-2.89541 5.39354,-8.58887 7.61438,-11.12002 4.85245,-5.53046 5.1498,-6.03017 6.96285,-11.70137 1.94308,-6.07795 2.19896,-8.45717 1.46058,-13.58096 -0.60308,-4.1849 -2.07631,-8.38957 -3.94287,-11.25313 -3.50369,-5.37513 -10.21596,-10.69161 -18.41856,-14.58849 -3.31955,-1.57705 -4.71561,-1.94712 -10.51715,-2.78792 -9.411014,-1.3639 -12.602434,-1.44466 -15.992424,-0.40471 -0.88724,0.27217 -3.47737,0.8078 -5.75584,1.19027 -4.74335,0.79624 -5.92459,1.26044 -8.95353,3.51846 -5.08221,3.78871 -6.934,6.29318 -6.94429,9.3919 -0.004,1.20328 0.0966,1.49486 0.66326,1.92229 0.66076,0.49841 0.67034,0.49752 0.88705,-0.0821 0.2056,-0.54993 0.24047,-0.55693 0.56734,-0.11392 0.32191,0.43629 0.37041,0.41605 0.64055,-0.26726 0.16075,-0.40662 0.3729,-1.10011 0.47144,-1.54111 0.23519,-1.05259 0.94828,-2.27864 1.22561,-2.10724 0.12057,0.0745 0.14235,0.44174 0.0484,0.81605 -0.1576,0.62792 -0.12666,0.65694 0.39992,0.37512 0.49331,-0.26401 0.57074,-0.23379 0.57074,0.22272 0,0.2905 0.12027,0.6025 0.26727,0.69335 0.47414,0.29304 0.28471,1.40824 -0.37172,2.18837 -0.35144,0.41766 -1.38537,1.96035 -2.29762,3.42819 -0.91225,1.46784 -1.93082,3.02961 -2.2635,3.47061 -0.83298,1.1042 -2.06712,3.59899 -3.08115,6.22848 -0.83929,2.17634 -0.84507,2.22301 -0.42744,3.44867 0.75387,2.21251 0.56827,4.06941 -0.69815,6.98463 -1.37981,3.1762 -2.52594,5.03727 -3.71606,6.03404 -2.171562,1.81877 -2.444942,3.46965 -0.8349,5.04181 0.5551,0.54204 1.58674,1.1823 2.29253,1.42278 0.70579,0.24049 1.3449,0.59789 1.42024,0.79423 0.0753,0.19634 -0.049,1.17463 -0.27628,2.17399 -0.2273,0.99936 -0.49433,2.78905 -0.59342,3.97709 l -0.18014,2.16007 1.00097,1.00097 1.00097,1.00097 -0.47327,1.04953 c -0.63505,1.40829 -0.29382,2.50662 1.50759,4.85262 l 1.37979,1.79692 0.0387,3.95025 c 0.0384,3.91999 0.0448,3.95942 0.84303,5.14897 0.60353,0.89944 1.27956,1.44339 2.70767,2.17865 2.63583,1.35705 4.14749,1.50281 8.21464,0.79211 6.04945,-1.05711 6.19265,-0.9686 6.59584,4.07684 0.14864,1.86003 0.41353,3.77053 0.58863,4.24553 0.17511,0.47501 1.18979,2.19746 2.25484,3.82766 1.73404,2.65417 2.16613,3.12567 4.1335,4.51044 l 2.57501,1.26295 4.174781,0.37668 c 3.92718,0.0804 5.011826,0.006 7.893633,-0.53958 z"
       id="path3878-3"
       inkscape:connector-curvature="0"
       sodipodi:nodetypes="csccccssscscccccscccccccsccscccccsccccccccccscscsccccccc" />
    <path
       style="fill:#217867;stroke-width:0.19835044"
       d="m 24.783544,237.93226 c -4.026343,-0.76258 -7.163643,-1.76986 -9.098496,-2.92121 -1.60553,-0.95539 -4.438465,-4.13873 -5.041325,-5.6649 -0.324907,-0.8225 -0.321442,-0.85325 0.24659,-2.18812 0.796141,-1.8709 1.826635,-5.36253 2.590152,-8.77622 0.758708,-3.39222 0.73781,-5.18894 -0.07876,-6.77044 -1.109472,-2.14879 -4.0027416,-6.37412 -5.650908,-8.25257 -3.6011801,-4.10436 -3.8218469,-4.47521 -5.167377,-8.68402 -1.4420378,-4.51066 -1.63192827,-6.27637 -1.083957,-10.07892 0.4475676,-3.10577 1.5409052,-6.22621 2.9261545,-8.35136 2.600216,-3.98908 7.5816285,-7.93463 13.6690835,-10.82665 2.463551,-1.17038 3.499626,-1.44503 7.805152,-2.06902 6.984268,-1.01219 9.352737,-1.07213 11.868579,-0.30035 0.658446,0.20199 2.440414,0.31899 4.131349,0.60283 3.52022,0.59092 4.537116,1.21594 6.784995,2.89169 3.771693,2.81174 5.145974,4.6704 5.153618,6.97008 0.003,0.89299 -0.07169,1.10939 -0.492237,1.4266 -0.490374,0.36989 -0.497483,0.36922 -0.658304,-0.0609 -0.152591,-0.40813 -0.178469,-0.41332 -0.421051,-0.0846 -0.238902,0.32379 -0.274895,0.30877 -0.475376,-0.19834 -0.119298,-0.30177 -0.276735,-0.81643 -0.349865,-1.14371 -0.174551,-0.78117 -0.530204,-1.64148 -0.736021,-1.51427 -0.08947,0.0553 -0.2792,0.27824 -0.209476,0.55603 0.343128,1.03142 0.846392,1.49073 -0.296795,0.27839 -0.366096,-0.19593 -0.621918,-0.17351 -0.621918,0.16529 0,0.21559 0.109094,0.44713 0,0.51456 -0.351876,0.21747 -0.211293,1.0451 0.275867,1.62407 0.260817,0.30996 1.028134,1.45484 1.705148,2.54418 0.677014,1.08934 1.432939,2.24838 1.679825,2.57567 0.618185,0.81946 1.534093,2.67094 2.286641,4.62238 0.622868,1.61514 0.627158,1.64977 0.317219,2.55938 -0.559474,1.64199 -0.421726,3.02006 0.51813,5.18355 1.024,2.35717 1.874585,3.73834 2.757816,4.47808 1.611594,1.34978 1.814479,2.57495 0.61961,3.74171 -0.41196,0.40227 -1.177578,0.87743 -1.70137,1.0559 -0.523793,0.17847 -0.9981,0.44371 -1.054012,0.58942 -0.05588,0.14572 0.03637,0.87174 0.205045,1.6134 0.16868,0.74166 0.36686,2.06986 0.440391,2.95154 l 0.133688,1.60307 -0.742856,0.74286 -0.742856,0.74285 0.351231,0.7789 c 0.471293,1.04514 0.218054,1.86025 -1.118838,3.6013 l -1.023999,1.33356 -0.02872,2.93163 c -0.0285,2.90917 -0.03325,2.93843 -0.625643,3.82124 -0.447902,0.6675 -0.949608,1.07119 -2.009461,1.61685 -1.956138,1.00712 -3.078003,1.11529 -6.096383,0.58785 -4.489517,-0.78451 -4.595791,-0.71883 -4.895013,3.02558 -0.110311,1.38039 -0.306888,2.79824 -0.436844,3.15076 -0.129948,0.35252 -0.882979,1.63081 -1.673391,2.84064 -1.286887,1.96976 -1.607564,2.31968 -3.067613,3.34737 l -1.97761,0.89972 -3.031663,0.31711 c -2.914503,0.0597 -3.719461,0.004 -5.858157,-0.40045 z"
       id="path3878-6"
       inkscape:connector-curvature="0"
       sodipodi:nodetypes="ccccccssccccccssccccccccsccscccccsccscccccccscscsccscccc" />
    <text
       xml:space="preserve"
       style="font-style:normal;font-weight:normal;font-size:10.58333302px;line-height:1.25;font-family:sans-serif;letter-spacing:0px;word-spacing:0px;fill:#000000;fill-opacity:1;stroke:none;stroke-width:0.26458332"
       x="19.510675"
       y="190.35944"
       id="text3912"><tspan
         sodipodi:role="line"
         id="tspan3910"
         x="19.510675"
         y="199.72321"
         style="stroke-width:0.26458332" /></text>
    <flowRoot
       xml:space="preserve"
       id="flowRoot3914"
       style="fill:black;fill-opacity:1;stroke:none;font-family:sans-serif;font-style:normal;font-weight:normal;font-size:40px;line-height:1.25;letter-spacing:0px;word-spacing:0px"><flowRegion
         id="flowRegion3916"><rect
           id="rect3918"
           width="116.16754"
           height="195.96959"
           x="291.93408"
           y="183.70042" /></flowRegion><flowPara
         id="flowPara3920" /></flowRoot>    <text
       xml:space="preserve"
       style="font-style:normal;font-weight:normal;font-size:10.58333302px;line-height:1.25;font-family:sans-serif;letter-spacing:0px;word-spacing:0px;fill:#000000;fill-opacity:1;stroke:none;stroke-width:0.26458332"
       x="105.83874"
       y="228.04445"
       id="text3936"><tspan
         sodipodi:role="line"
         id="tspan3934"
         x="105.83874"
         y="237.40822"
         style="stroke-width:0.26458332" /></text>
  </g>
</svg>
